<svg xmlns:xlink="http://www.w3.org/1999/xlink" xmlns="http://www.w3.org/2000/svg" id="logo-light" width="243" height="58" viewBox="0 0 243 58">
  <defs>
    <style>
      .cls-1 {
        fill: #ffffff;
      }

      .cls-2 {
        fill: #ffe04d;
      }

      .cls-3 {
        fill: #4b2f37;
      }
    </style>
  </defs>
  <path id="Petilio" class="cls-1" d="M84.8,11.444q-1.111,0-1.943.056t-1.388.111a28.317,28.317,0,0,1-2.887.167q-1.333,0-2.665-.111l-1.277-.056a1.589,1.589,0,0,0-1.027.334,0.979,0.979,0,0,0-.416.778,1.661,1.661,0,0,0,.25,1,2.334,2.334,0,0,0,.749.612,3.05,3.05,0,0,1,1.055,1,3.891,3.891,0,0,1,.389,2V45.533a3.887,3.887,0,0,1-.389,2,3.39,3.39,0,0,1-1.11,1.057,3.221,3.221,0,0,0-.722.612,1.427,1.427,0,0,0-.222.89,1.136,1.136,0,0,0,.389.862,1.484,1.484,0,0,0,1.055.361,10.549,10.549,0,0,0,1.221-.056q1.443-.111,2.776-0.111,1.61,0,3.387.111a12.119,12.119,0,0,0,1.277.056,1.589,1.589,0,0,0,1.083-.361,1.161,1.161,0,0,0,.416-0.918,1.353,1.353,0,0,0-.305-0.945,3.373,3.373,0,0,0-.972-0.667,3.618,3.618,0,0,1-1.388-1,3.174,3.174,0,0,1-.5-2v-6.34a1.167,1.167,0,0,1,.111-0.639A0.743,0.743,0,0,1,82.3,38.3q0.333,0,.972.056t1.86,0.056q12.992,0,12.992-13.346,0-6.45-3.5-10.038T84.8,11.444h0ZM84.522,35.189a3.633,3.633,0,0,1-2.193-.528,2.061,2.061,0,0,1-.694-1.752V17.45a3.815,3.815,0,0,1,.472-2q0.471-.778,2.3-0.779a6.065,6.065,0,0,1,5.163,2.7q1.943,2.7,1.943,7.758a13.405,13.405,0,0,1-1.749,7.4,5.854,5.854,0,0,1-5.247,2.669h0Zm40.753,4.671a1.293,1.293,0,0,0-.861.306,5.775,5.775,0,0,0-.916,1.14,26.833,26.833,0,0,1-4.025,5.2,5.442,5.442,0,0,1-3.748,1.474h-3.942a2.614,2.614,0,0,1-2.137-.639,3.449,3.449,0,0,1-.472-2.03V33.966a1.221,1.221,0,0,1,.3-0.973,1.421,1.421,0,0,1,.916-0.25h2.887a1.687,1.687,0,0,1,1.361.639,7.829,7.829,0,0,1,1.027,1.752,11.854,11.854,0,0,0,.8,1.362,0.951,0.951,0,0,0,.805.417q1.221,0,1.221-1.668l-0.055-1.891q-0.113-1.445-.111-2.224t0.111-2.113L118.5,27.07a2.087,2.087,0,0,0-.333-1.307,1.08,1.08,0,0,0-.888-0.417,1.006,1.006,0,0,0-.833.445,8.462,8.462,0,0,0-.777,1.39,7.788,7.788,0,0,1-1.027,1.752,1.684,1.684,0,0,1-1.361.64H110.4a1.064,1.064,0,0,1-1.221-1.279V17.505a2.7,2.7,0,0,1,.583-2.057,3.256,3.256,0,0,1,2.082-.5H114a5.817,5.817,0,0,1,2.832.667,7.426,7.426,0,0,1,2.221,1.919q1,1.251,2.665,3.7a6.564,6.564,0,0,0,.86,1.057,1.225,1.225,0,0,0,.861.334,1.024,1.024,0,0,0,.777-0.361,1.3,1.3,0,0,0,.333-0.918,12.862,12.862,0,0,0-1-3.782L122,13.279a13.578,13.578,0,0,0-.944-2.141,1.231,1.231,0,0,0-1.11-.639,1.59,1.59,0,0,0-.722.167,3.462,3.462,0,0,0-.611.389,3.645,3.645,0,0,1-.721.5,2,2,0,0,1-.889.167H106.176q-1.278,0-2.36-.083t-1.582-.083a1.6,1.6,0,0,0-1.083.362,1.162,1.162,0,0,0-.416.917,1.419,1.419,0,0,0,.222.89,3.187,3.187,0,0,0,.721.612,2.93,2.93,0,0,1,1.111,1,3.9,3.9,0,0,1,.389,2v28.25a3.891,3.891,0,0,1-.389,2,2.917,2.917,0,0,1-1.111,1,3.2,3.2,0,0,0-.721.612,1.422,1.422,0,0,0-.222.89,1.2,1.2,0,0,0,.388.918,1.572,1.572,0,0,0,1.111.361,9.317,9.317,0,0,0,1.11-.056q1.443-.112,2.832-0.111h12.492a1.948,1.948,0,0,1,.888.195,3.712,3.712,0,0,1,.666.417,3.466,3.466,0,0,0,.667.473,1.621,1.621,0,0,0,.722.139,1.369,1.369,0,0,0,1.11-.556,5.758,5.758,0,0,0,.833-1.724l1.721-4.894q0.5-1.445.8-2.447a5.958,5.958,0,0,0,.305-1.668,1.3,1.3,0,0,0-.333-0.918,1.027,1.027,0,0,0-.777-0.361h0Zm11.659,11.456a12.8,12.8,0,0,0,1.333-.056q1.665-.111,3.22-0.111,1.609,0,3.276.111,0.554,0.055,1.332.056a1.485,1.485,0,0,0,1.055-.361,1.2,1.2,0,0,0,.389-0.918,1.328,1.328,0,0,0-.278-0.917,4.135,4.135,0,0,0-.944-0.7,3.587,3.587,0,0,1-1.3-.973,3.181,3.181,0,0,1-.472-1.974V17.283a3.153,3.153,0,0,1,.388-1.807,1.618,1.618,0,0,1,1.388-.528h0.722a3.972,3.972,0,0,1,2.97,1.307,33.826,33.826,0,0,1,3.526,4.977,2.159,2.159,0,0,0,1.721,1.39,1.135,1.135,0,0,0,.861-0.389,1.415,1.415,0,0,0,.361-1,15.939,15.939,0,0,0-.944-3.67L154.2,13.279a6.847,6.847,0,0,0-.916-2.113,1.358,1.358,0,0,0-1.082-.612,1.856,1.856,0,0,0-1.333.612,4.257,4.257,0,0,1-.638.417,1.669,1.669,0,0,1-.805.195H133.6a1.658,1.658,0,0,1-.805-0.195,4.109,4.109,0,0,1-.638-0.417,1.859,1.859,0,0,0-1.333-.612,1.355,1.355,0,0,0-1.083.612,6.823,6.823,0,0,0-.916,2.113L127.5,17.561a15.883,15.883,0,0,0-.944,3.67,1.411,1.411,0,0,0,.361,1,1.131,1.131,0,0,0,.86.389,2.161,2.161,0,0,0,1.721-1.39,33.826,33.826,0,0,1,3.526-4.977,3.973,3.973,0,0,1,2.97-1.307h0.722a1.618,1.618,0,0,1,1.388.528,3.152,3.152,0,0,1,.389,1.807V45.477a3.187,3.187,0,0,1-.472,1.974,3.6,3.6,0,0,1-1.305.973,4.158,4.158,0,0,0-.944.7,1.328,1.328,0,0,0-.277.917,1.2,1.2,0,0,0,.388.918,1.485,1.485,0,0,0,1.055.361h0Zm22.93,0a10.544,10.544,0,0,0,1.221-.056q1.443-.111,2.776-0.111,1.554,0,2.887.111a9.345,9.345,0,0,0,1.111.056,1.587,1.587,0,0,0,1.082-.361,1.1,1.1,0,0,0,.417-0.862,1.314,1.314,0,0,0-.25-0.89,4.031,4.031,0,0,0-.75-0.612,4.127,4.127,0,0,1-1.11-1.084,3.721,3.721,0,0,1-.389-1.974V17.394a3.583,3.583,0,0,1,.389-1.919,4.9,4.9,0,0,1,1.11-1.14,4,4,0,0,0,.75-0.612,1.311,1.311,0,0,0,.25-0.89,1.106,1.106,0,0,0-.417-0.862,1.591,1.591,0,0,0-1.082-.362,9.323,9.323,0,0,0-1.111.056q-1.332.112-2.887,0.111-1.445,0-2.665-.111a10.509,10.509,0,0,0-1.221-.056,1.705,1.705,0,0,0-1.111.362,1.082,1.082,0,0,0-.444.862,1.426,1.426,0,0,0,.222.89,3.219,3.219,0,0,0,.722.612,4.14,4.14,0,0,1,1.11,1.084,3.722,3.722,0,0,1,.389,1.974V45.533a3.881,3.881,0,0,1-.389,2,3.38,3.38,0,0,1-1.11,1.057,3.237,3.237,0,0,0-.722.612,1.429,1.429,0,0,0-.222.89,1.134,1.134,0,0,0,.389.862,1.484,1.484,0,0,0,1.055.361h0Zm32.646,1.112a1.32,1.32,0,0,0,1.055-.556,6.557,6.557,0,0,0,.888-1.78l1.721-4.949,0.389-1.112q0.333-1,.583-1.807a4.671,4.671,0,0,0,.25-1.307,1.32,1.32,0,0,0-.361-0.973,1.274,1.274,0,0,0-1.749-.028,5.694,5.694,0,0,0-.888,1.056l-0.722.945Q191.9,44.366,190.9,45.5a8.984,8.984,0,0,1-2.11,1.807,4.864,4.864,0,0,1-2.554.667H183.46a1.576,1.576,0,0,1-1.388-.556,2.8,2.8,0,0,1-.389-1.613V17.394a3.583,3.583,0,0,1,.389-1.919,4.541,4.541,0,0,1,1.166-1.14,3.612,3.612,0,0,0,.805-0.612,1.306,1.306,0,0,0,.25-0.89,1.139,1.139,0,0,0-.389-0.862,1.489,1.489,0,0,0-1.055-.362,9.9,9.9,0,0,0-1.166.056q-1.445.112-3,.111-1.445,0-2.665-.111a10.509,10.509,0,0,0-1.221-.056,1.705,1.705,0,0,0-1.111.362,1.082,1.082,0,0,0-.444.862,1.426,1.426,0,0,0,.222.89,3.219,3.219,0,0,0,.722.612,4.14,4.14,0,0,1,1.11,1.084,3.722,3.722,0,0,1,.389,1.974V45.588a3.881,3.881,0,0,1-.389,2,3.031,3.031,0,0,1-1.054,1,3.431,3.431,0,0,0-.75.639,1.426,1.426,0,0,0-.25.918,1.2,1.2,0,0,0,.333.89,1.441,1.441,0,0,0,1.055.334,9.915,9.915,0,0,0,1.166-.056q1.443-.112,2.887-0.111h10.771a2.954,2.954,0,0,1,1.777.667,2.033,2.033,0,0,0,1.277.556h0Zm8.217-1.112a10.544,10.544,0,0,0,1.221-.056q1.443-.111,2.776-0.111,1.554,0,2.887.111a9.345,9.345,0,0,0,1.111.056,1.587,1.587,0,0,0,1.082-.361,1.1,1.1,0,0,0,.417-0.862,1.309,1.309,0,0,0-.25-0.89,4.031,4.031,0,0,0-.75-0.612,4.127,4.127,0,0,1-1.11-1.084,3.721,3.721,0,0,1-.389-1.974V17.394a3.583,3.583,0,0,1,.389-1.919,4.9,4.9,0,0,1,1.11-1.14,4,4,0,0,0,.75-0.612,1.306,1.306,0,0,0,.25-0.89,1.106,1.106,0,0,0-.417-0.862,1.591,1.591,0,0,0-1.082-.362,9.323,9.323,0,0,0-1.111.056q-1.332.112-2.887,0.111-1.445,0-2.665-.111a10.509,10.509,0,0,0-1.221-.056,1.705,1.705,0,0,0-1.111.362,1.082,1.082,0,0,0-.444.862,1.426,1.426,0,0,0,.222.89,3.219,3.219,0,0,0,.722.612,4.14,4.14,0,0,1,1.11,1.084,3.722,3.722,0,0,1,.389,1.974V45.533a3.881,3.881,0,0,1-.389,2,3.38,3.38,0,0,1-1.11,1.057,3.237,3.237,0,0,0-.722.612,1.429,1.429,0,0,0-.222.89,1.134,1.134,0,0,0,.389.862,1.484,1.484,0,0,0,1.055.361h0Zm27.649,0.723a12.473,12.473,0,0,0,7.662-2.53,16.646,16.646,0,0,0,5.3-7.09,26.947,26.947,0,0,0,1.916-10.51,28.043,28.043,0,0,0-1.943-10.594,18.823,18.823,0,0,0-5.33-7.618,11.617,11.617,0,0,0-7.607-2.808,11.468,11.468,0,0,0-7.5,2.808,18.983,18.983,0,0,0-5.358,7.674,28.109,28.109,0,0,0-1.971,10.649,26.13,26.13,0,0,0,1.971,10.455,16.83,16.83,0,0,0,5.358,7.062,12.32,12.32,0,0,0,7.5,2.5h0Zm0.056-3.67a5.5,5.5,0,0,1-4.359-2.28,15.366,15.366,0,0,1-2.8-6.145,35.685,35.685,0,0,1-.944-8.48,36.914,36.914,0,0,1,.944-8.647,15.638,15.638,0,0,1,2.776-6.2,5.425,5.425,0,0,1,4.33-2.28,5.53,5.53,0,0,1,4.414,2.308,15.671,15.671,0,0,1,2.8,6.2,36.352,36.352,0,0,1,.944,8.564,36.163,36.163,0,0,1-.944,8.619,15.381,15.381,0,0,1-2.776,6.089,5.5,5.5,0,0,1-4.386,2.252h0Z" transform="translate(-0.375 -1.125)"/>
  <g id="icon">
    <path id="icon-2" data-name="icon" class="cls-2" d="M39.214,19.623c3.6,0,6.52-3.756,6.52-8.39s-2.919-10.1-6.52-10.1-6.52,5.469-6.52,10.1S35.614,19.623,39.214,19.623Zm-18.525,0c3.6,0,6.52-3.756,6.52-8.39s-2.919-10.1-6.52-10.1-6.52,5.469-6.52,10.1S17.089,19.623,20.69,19.623ZM9.46,30.284c3.053-1.217,4.287-5.3,2.758-9.126s-5.809-7.347-8.861-6.13-3.722,6.716-2.193,10.538S6.408,31.5,9.46,30.284ZM56.547,15.029c-3.052-1.217-7.332,2.307-8.861,6.13s-0.294,7.908,2.758,9.126,6.767-.895,8.3-4.717S59.6,16.247,56.547,15.029ZM49.067,38.112c-4.32-6.13-11.239-12.32-19.115-12.32-7.844,0-14.794,6.189-19.115,12.32a24.469,24.469,0,0,0-4.21,8.57,11.21,11.21,0,0,0,1.626,9.175c1.942,2.543,5.622,3.813,8.5,2.436,1.711-.818,3.1-2.469,4.982-2.628,1.733-.146,3.264,1.019,4.709,1.993a6.8,6.8,0,0,0,3.51,1.353,6.8,6.8,0,0,0,3.51-1.353c1.445-.974,2.976-2.139,4.709-1.993,1.887,0.159,3.272,1.809,4.982,2.628,2.877,1.376,6.557.107,8.5-2.436a11.21,11.21,0,0,0,1.626-9.175A24.466,24.466,0,0,0,49.067,38.112Z" transform="translate(-0.375 -1.125)"/>
    <path id="heart" class="cls-3" d="M38.951,42.357a21.339,21.339,0,0,1-4.2,4.985,27.268,27.268,0,0,1-2.418,2l-0.005,0a2.837,2.837,0,0,1-3.332,0l0,0a27.242,27.242,0,0,1-2.418-2,21.341,21.341,0,0,1-4.2-4.985,7.06,7.06,0,0,1-.891-5.2,4.559,4.559,0,0,1,3.563-3.522c1.989-.25,4.3,1.136,5.615,2.729,1.312-1.592,3.627-2.978,5.616-2.729a4.559,4.559,0,0,1,3.563,3.522A7.06,7.06,0,0,1,38.951,42.357Z" transform="translate(-0.375 -1.125)"/>
  </g>
</svg>